<svg width="8" height="15" viewBox="0 0 8 15" fill="none" xmlns="http://www.w3.org/2000/svg">
<path fill-rule="evenodd" clip-rule="evenodd" d="M0.226748 0.351749C0.278999 0.299365 0.341072 0.257804 0.40941 0.229447C0.477749 0.20109 0.55101 0.186493 0.624998 0.186493C0.698986 0.186493 0.772248 0.20109 0.840586 0.229447C0.908924 0.257804 0.970997 0.299365 1.02325 0.351749L7.77325 7.10175C7.82563 7.154 7.86719 7.21607 7.89555 7.28441C7.92391 7.35275 7.9385 7.42601 7.9385 7.5C7.9385 7.57399 7.92391 7.64725 7.89555 7.71559C7.86719 7.78392 7.82563 7.846 7.77325 7.89825L1.02325 14.6482C0.917626 14.7539 0.774371 14.8132 0.624998 14.8132C0.475625 14.8132 0.332371 14.7539 0.226748 14.6482C0.121126 14.5426 0.0617874 14.3994 0.0617874 14.25C0.0617874 14.1006 0.121126 13.9574 0.226748 13.8517L6.57962 7.5L0.226748 1.14825C0.174364 1.096 0.132804 1.03392 0.104446 0.965586C0.0760891 0.897248 0.0614929 0.823987 0.0614929 0.749998C0.0614929 0.67601 0.0760891 0.602749 0.104446 0.534411C0.132804 0.466072 0.174364 0.404 0.226748 0.351749Z" fill="#003366"/>
</svg>
