<svg width="49" height="48" viewBox="0 0 49 48" fill="none" xmlns="http://www.w3.org/2000/svg">
<g filter="url(#filter0_d_13_110)">
<path d="M24.8 0C25.4631 0 26.099 0.263393 26.5678 0.732234C27.0367 1.20107 27.3 1.83696 27.3 2.5V17.5H42.3C42.9631 17.5 43.599 17.7634 44.0678 18.2322C44.5367 18.7011 44.8 19.337 44.8 20C44.8 20.663 44.5367 21.2989 44.0678 21.7678C43.599 22.2366 42.9631 22.5 42.3 22.5H27.3V37.5C27.3 38.163 27.0367 38.7989 26.5678 39.2678C26.099 39.7366 25.4631 40 24.8 40C24.137 40 23.5011 39.7366 23.0323 39.2678C22.5634 38.7989 22.3 38.163 22.3 37.5V22.5H7.30005C6.63701 22.5 6.00112 22.2366 5.53228 21.7678C5.06344 21.2989 4.80005 20.663 4.80005 20C4.80005 19.337 5.06344 18.7011 5.53228 18.2322C6.00112 17.7634 6.63701 17.5 7.30005 17.5H22.3V2.5C22.3 1.83696 22.5634 1.20107 23.0323 0.732234C23.5011 0.263393 24.137 0 24.8 0Z" fill="#75687E"/>
</g>
<defs>
<filter id="filter0_d_13_110" x="0.800049" y="0" width="48" height="48" filterUnits="userSpaceOnUse" color-interpolation-filters="sRGB">
<feFlood flood-opacity="0" result="BackgroundImageFix"/>
<feColorMatrix in="SourceAlpha" type="matrix" values="0 0 0 0 0 0 0 0 0 0 0 0 0 0 0 0 0 0 127 0" result="hardAlpha"/>
<feOffset dy="4"/>
<feGaussianBlur stdDeviation="2"/>
<feComposite in2="hardAlpha" operator="out"/>
<feColorMatrix type="matrix" values="0 0 0 0 0 0 0 0 0 0 0 0 0 0 0 0 0 0 0.25 0"/>
<feBlend mode="normal" in2="BackgroundImageFix" result="effect1_dropShadow_13_110"/>
<feBlend mode="normal" in="SourceGraphic" in2="effect1_dropShadow_13_110" result="shape"/>
</filter>
</defs>
</svg>
